<svg xmlns="http://www.w3.org/2000/svg" xmlns:xlink="http://www.w3.org/1999/xlink" width="300.715" height="170.871" viewBox="0 0 300.715 170.871">
  <defs>
    <linearGradient id="linear-gradient" y1="0.5" x2="1" y2="0.5" gradientUnits="objectBoundingBox">
      <stop offset="0" stop-color="#3298d3"/>
      <stop offset="0.105" stop-color="#42a0da"/>
      <stop offset="0.35" stop-color="#62b0ea"/>
      <stop offset="0.586" stop-color="#79bcf5"/>
      <stop offset="0.807" stop-color="#87c3fc"/>
      <stop offset="1" stop-color="#8cc6ff"/>
    </linearGradient>
    <linearGradient id="linear-gradient-3" x1="0.82" y1="0.205" x2="0.293" y2="0.736" gradientUnits="objectBoundingBox">
      <stop offset="0" stop-color="#f6b3b5"/>
      <stop offset="1" stop-color="#fad1d3"/>
    </linearGradient>
    <linearGradient id="linear-gradient-4" x1="0.366" y1="-0.117" x2="0.567" y2="0.831" xlink:href="#linear-gradient-3"/>
    <linearGradient id="linear-gradient-5" x1="0.78" y1="-0.114" x2="0.167" y2="1.33" xlink:href="#linear-gradient-3"/>
    <linearGradient id="linear-gradient-6" x1="-0.374" y1="0.5" x2="1.105" y2="0.5" xlink:href="#linear-gradient-3"/>
    <linearGradient id="linear-gradient-7" x1="0.493" y1="1.236" x2="0.514" y2="-0.278" gradientUnits="objectBoundingBox">
      <stop offset="0" stop-color="#001462"/>
      <stop offset="0.069" stop-color="#071e71"/>
      <stop offset="0.252" stop-color="#183594"/>
      <stop offset="0.437" stop-color="#2647b0"/>
      <stop offset="0.623" stop-color="#3054c4"/>
      <stop offset="0.81" stop-color="#365cd0"/>
      <stop offset="1" stop-color="#385fd4"/>
    </linearGradient>
    <linearGradient id="linear-gradient-8" x1="-0.773" y1="0.5" x2="1.088" y2="0.5" xlink:href="#linear-gradient"/>
    <linearGradient id="linear-gradient-9" x1="0.5" y1="-0.19" x2="0.5" y2="1.216" xlink:href="#linear-gradient"/>
    <linearGradient id="linear-gradient-10" x1="1.087" y1="0.417" x2="-0.153" y2="0.767" gradientUnits="objectBoundingBox">
      <stop offset="0" stop-color="#f6b3b5"/>
      <stop offset="0.991" stop-color="#fad1d3"/>
    </linearGradient>
    <linearGradient id="linear-gradient-11" x1="0.561" y1="0.433" x2="0.105" y2="0.79" xlink:href="#linear-gradient-10"/>
    <linearGradient id="linear-gradient-12" y1="0.5" x2="1" y2="0.5" gradientUnits="objectBoundingBox">
      <stop offset="0" stop-color="#3298d3"/>
      <stop offset="0.225" stop-color="#2d8cca"/>
      <stop offset="0.619" stop-color="#216fb4"/>
      <stop offset="0.991" stop-color="#144e9c"/>
    </linearGradient>
    <linearGradient id="linear-gradient-13" x1="0.5" y1="-1.142" x2="0.5" y2="1.465" xlink:href="#linear-gradient-12"/>
    <linearGradient id="linear-gradient-14" x1="1.154" y1="0.34" x2="-0.141" y2="0.687" xlink:href="#linear-gradient-10"/>
    <linearGradient id="linear-gradient-15" x1="0.567" y1="-0.104" x2="0.42" y2="0.968" xlink:href="#linear-gradient-10"/>
    <linearGradient id="linear-gradient-16" x1="-3.555" y1="6.749" x2="0.835" y2="-0.016" gradientUnits="objectBoundingBox">
      <stop offset="0" stop-color="#8cc6ff"/>
      <stop offset="1" stop-color="#f6b3b5"/>
    </linearGradient>
    <linearGradient id="linear-gradient-17" x1="0.5" y1="2.747" x2="0.5" y2="-0.819" xlink:href="#linear-gradient"/>
    <linearGradient id="linear-gradient-18" x1="0.5" y1="2.586" x2="0.5" y2="-0.703" xlink:href="#linear-gradient"/>
    <linearGradient id="linear-gradient-21" x1="0.5" y1="1.073" x2="0.5" y2="-0.165" xlink:href="#linear-gradient-10"/>
    <linearGradient id="linear-gradient-22" x1="0.6" y1="1.4" x2="0.415" y2="-0.007" xlink:href="#linear-gradient-10"/>
    <linearGradient id="linear-gradient-23" x1="2.266" y1="0.145" x2="0.035" y2="0.647" xlink:href="#linear-gradient-12"/>
    <linearGradient id="linear-gradient-24" x1="2.889" y1="0.358" x2="-0.099" y2="0.57" gradientUnits="objectBoundingBox">
      <stop offset="0" stop-color="#8cc6ff"/>
      <stop offset="0.006" stop-color="#97c4f7"/>
      <stop offset="0.016" stop-color="#b4bee2"/>
      <stop offset="0.029" stop-color="#e4b6c1"/>
      <stop offset="0.033" stop-color="#f6b3b5"/>
      <stop offset="0.991" stop-color="#0060ff"/>
    </linearGradient>
    <linearGradient id="linear-gradient-25" x1="-2.302" y1="0.233" x2="4.871" y2="0.924" gradientUnits="objectBoundingBox">
      <stop offset="0.105" stop-color="#001462"/>
      <stop offset="0.297" stop-color="#132e89"/>
      <stop offset="0.49" stop-color="#2343aa"/>
      <stop offset="0.675" stop-color="#2e52c1"/>
      <stop offset="0.849" stop-color="#355bcf"/>
      <stop offset="1" stop-color="#385fd4"/>
    </linearGradient>
    <linearGradient id="linear-gradient-26" x1="-2.16" y1="0.268" x2="5.982" y2="0.959" xlink:href="#linear-gradient-25"/>
    <linearGradient id="linear-gradient-27" x1="-0.998" y1="-0.736" x2="2.936" y2="2.477" xlink:href="#linear-gradient-25"/>
    <linearGradient id="linear-gradient-28" x1="1.493" y1="-0.435" x2="0.155" y2="0.849" xlink:href="#linear-gradient-12"/>
    <linearGradient id="linear-gradient-29" x1="0.414" y1="0.064" x2="0.577" y2="1.038" xlink:href="#linear-gradient-3"/>
    <linearGradient id="linear-gradient-30" x1="1.006" y1="-0.155" x2="-0.018" y2="0.867" xlink:href="#linear-gradient-3"/>
    <linearGradient id="linear-gradient-31" x1="2.22" y1="-2.095" x2="-0.329" y2="1.451" xlink:href="#linear-gradient-12"/>
    <linearGradient id="linear-gradient-32" x1="0.5" y1="0.963" x2="0.5" y2="0.053" xlink:href="#linear-gradient-3"/>
  </defs>
  <g id="Group_37" data-name="Group 37" transform="translate(-166.398 -112.282)">
    <path id="Path_114" data-name="Path 114" d="M227.35,174.835l-.346.159-.627.3c-.412.2-.78.4-1.166.609q-1.114.619-2.158,1.277A47,47,0,0,0,219.075,180a54.024,54.024,0,0,0-6.974,6.531,60.049,60.049,0,0,0-5.733,7.512,67.016,67.016,0,0,0-4.468,8.22,72.577,72.577,0,0,0-3.272,8.654c-.413,1.473-.875,2.94-1.2,4.426l-.523,2.225-.429,2.234a93.464,93.464,0,0,0-1.363,11.033V216.842a68.262,68.262,0,0,1,2.734-10.159c1.993-5.964,4.939-12.872,8.209-20.342,2.68-6.11,4.97-11.485,7.091-15.845a36.3,36.3,0,0,1,5.94-9.288c-1.7,1.7-4.9,3.907-8.354,7.6a53.824,53.824,0,0,0-10.06,15.144,72,72,0,0,0-5.56,20.8V174.585a27.1,27.1,0,0,1,2.733-6.012c1.989-3.422,4.737-7.21,7.5-11.564a75.676,75.676,0,0,0,5.152-9.874,48.765,48.765,0,0,1,3.156-6.439c-.86,1.277-3.016,2.6-5.489,4.643a35.53,35.53,0,0,0-7.8,8.525,37.455,37.455,0,0,0-5.253,13.506V155.817c.812-5.326,2.524-13.353,2.524-22.64,0-9.946-2.944-17.383-2.944-20.9,0,3.512-2.944,10.949-2.944,20.9,0,9.289,1.714,17.319,2.525,22.645v12.585a80.51,80.51,0,0,0-6.04-22.8,63.546,63.546,0,0,0-10.629-16.56,81.358,81.358,0,0,0-8.907-8.4c2,1.746,4.194,5.309,6.464,10.039,2.291,4.739,4.747,10.627,7.679,17.277,3.519,8.163,6.606,15.7,8.684,22.21a72.377,72.377,0,0,1,2.75,11.152v19.424q-.384-3.614-1.012-7.163a116.207,116.207,0,0,0-3.889-15.565,133.9,133.9,0,0,0-5.782-14.876c-1.105-2.429-2.329-4.825-3.622-7.211a69.3,69.3,0,0,0-4.544-7.192,12,12,0,0,1,2.145,8.688,23.549,23.549,0,0,1-.9,4.159c-.427,1.34-.922,2.613-1.4,3.8a4.524,4.524,0,0,0-.017,4.077,9.554,9.554,0,0,0,2.542,2.825c1.969,1.707,4.058,3.316,2.6,5.679-1.413,2.342-3.141,4.542-3,7.091a7.458,7.458,0,0,0,1.742,4.268,37.3,37.3,0,0,0,5.781,5.835,32.647,32.647,0,0,1,4.486,4.766,34.622,34.622,0,0,1,4.828,8.451c.016.039.03.074.046.112V230.7c-.079-.5-2.527-14.5-10.846-22.245-7.817-7.278-15.113-9.592-17.03-10.658,1.933,1.069,12.939,14.661,16.535,19.342,5.547,7.224,11.34,16.266,11.34,26.274l0,.013v30.305h.838V235.449a13.634,13.634,0,0,1,.685-2.563,17.12,17.12,0,0,1,2.3-4.053,25.67,25.67,0,0,1,3.1-3.293c1.128-.977,2.271-1.841,3.347-2.626a5.3,5.3,0,0,0,2.441-3.653,12.576,12.576,0,0,0-.264-4.089c-.118-.693-.246-1.385-.331-2.054a8.364,8.364,0,0,1,0-1.889,2.987,2.987,0,0,1,2.056-2.644c2.672-1,5.437-1.562,7.151-3.557a6.3,6.3,0,0,0,1.135-1.8,11.713,11.713,0,0,0,.8-2.562c.413-2.038.624-4.708.956-8.531a27,27,0,0,1,4.6-12.439,17.983,17.983,0,0,1,4.744-5.062Z" transform="translate(0)" fill="url(#linear-gradient)"/>
    <path id="Path_115" data-name="Path 115" d="M488.62,205.506l.271.125.493.24c.324.158.613.318.916.478q.875.487,1.7,1a36.976,36.976,0,0,1,3.126,2.209,42.389,42.389,0,0,1,5.482,5.133,47.193,47.193,0,0,1,4.505,5.9,52.583,52.583,0,0,1,3.511,6.46,57.081,57.081,0,0,1,2.573,6.8c.324,1.157.688,2.31.943,3.479l.411,1.748.337,1.756a73.269,73.269,0,0,1,1.071,8.672V238.521a53.7,53.7,0,0,0-2.149-7.985c-1.566-4.688-3.882-10.116-6.452-15.989-2.106-4.8-3.906-9.026-5.573-12.454a28.539,28.539,0,0,0-4.668-7.3c1.336,1.337,3.852,3.071,6.566,5.976a42.3,42.3,0,0,1,7.906,11.9,56.575,56.575,0,0,1,4.37,16.345V205.31a21.347,21.347,0,0,0-2.148-4.726c-1.564-2.689-3.723-5.667-5.893-9.089a59.424,59.424,0,0,1-4.049-7.761,38.308,38.308,0,0,0-2.48-5.061c.675,1,2.37,2.043,4.314,3.65a27.949,27.949,0,0,1,6.127,6.7,29.44,29.44,0,0,1,4.129,10.615v-9.079c-.638-4.185-1.984-10.5-1.984-17.794,0-7.817,2.314-13.662,2.314-16.422,0,2.761,2.314,8.606,2.314,16.422,0,7.3-1.347,13.612-1.984,17.8v9.89a63.286,63.286,0,0,1,4.748-17.923,49.9,49.9,0,0,1,8.354-13.015,63.9,63.9,0,0,1,7-6.6c-1.572,1.372-3.3,4.173-5.08,7.89-1.8,3.725-3.731,8.352-6.035,13.579-2.766,6.415-5.191,12.341-6.825,17.456a56.749,56.749,0,0,0-2.162,8.765v15.265q.3-2.84.8-5.629a91.275,91.275,0,0,1,3.057-12.233,105.239,105.239,0,0,1,4.544-11.692c.868-1.909,1.831-3.792,2.846-5.668A54.415,54.415,0,0,1,529.431,185a9.434,9.434,0,0,0-1.686,6.828,18.536,18.536,0,0,0,.709,3.268c.336,1.053.725,2.054,1.1,2.984a3.554,3.554,0,0,1,.014,3.2,7.505,7.505,0,0,1-2,2.22c-1.548,1.342-3.19,2.606-2.045,4.464,1.111,1.841,2.469,3.57,2.36,5.573a5.863,5.863,0,0,1-1.37,3.355,29.272,29.272,0,0,1-4.544,4.586,25.744,25.744,0,0,0-3.526,3.746,27.21,27.21,0,0,0-3.794,6.643c-.013.031-.024.058-.036.088v17.457c.063-.391,1.986-11.4,8.525-17.484,6.144-5.719,11.877-7.539,13.385-8.376-1.52.84-10.17,11.523-13,15.2-4.359,5.678-8.912,12.785-8.912,20.651l0,.01v23.819h-.659V253.145a10.642,10.642,0,0,0-.539-2.014,13.425,13.425,0,0,0-1.806-3.185,20.15,20.15,0,0,0-2.438-2.588c-.886-.767-1.785-1.446-2.63-2.064a4.166,4.166,0,0,1-1.918-2.871,9.862,9.862,0,0,1,.207-3.213c.093-.544.193-1.089.26-1.615a6.569,6.569,0,0,0,0-1.485,2.346,2.346,0,0,0-1.615-2.078c-2.1-.787-4.273-1.227-5.621-2.8a4.966,4.966,0,0,1-.893-1.417,9.27,9.27,0,0,1-.625-2.013c-.325-1.6-.49-3.7-.751-6.7a21.229,21.229,0,0,0-3.612-9.777,14.118,14.118,0,0,0-3.729-3.978Z" transform="translate(-69.413 -9.502)" fill="url(#linear-gradient)"/>
    <path id="Path_116" data-name="Path 116" d="M298.09,285.582c1.286,5.435,3.177,11.537,5.141,17.291h32.562c.734-2.366,1.464-4.908,2.157-7.606,4-15.582-.211-29.057-4-35.163s-7.053-13.37-1.272-22.276S339,221.995,339,221.995c-.842-3.37-3.474-4.527-10.31-7.789l-1.042-.351c-1.447,5.879-4.5,10.556-9.915,11.509-7.051,1.242-13.417-3.06-16.637-10.61-3.1.916-6.562,1.893-8.209,2.82,0,0,8.633,18.739,10.279,29.336S294.155,268.948,298.09,285.582Z" transform="translate(-27.28 -21.906)" fill="#144e9c"/>
    <g id="Group_34" data-name="Group 34" transform="translate(273.82 179.98)">
      <path id="Path_117" data-name="Path 117" d="M319.993,222.072c5.412-.953,8.468-5.629,9.915-11.509-2.264-.767-7.592-2.6-9.072-3.336-1.895-.947-1.369-8.633-1.369-8.633l-10.006,2.856v7.461c0,.7-2.86,1.591-6.1,2.55C306.577,219.013,312.942,223.314,319.993,222.072Z" transform="translate(-303.357 -198.595)" fill="url(#linear-gradient-3)"/>
      <path id="Path_118" data-name="Path 118" d="M321.146,198.753l-10.006,2.856v6.341a20.4,20.4,0,0,1,10.584,14.269c5.379-.974,8.421-5.636,9.863-11.5-2.264-.767-7.592-2.6-9.072-3.336C320.619,206.439,321.146,198.753,321.146,198.753Z" transform="translate(-305.036 -198.629)" fill="#cb9eae"/>
    </g>
    <path id="Path_119" data-name="Path 119" d="M324.172,257.813c-4.465,1.366-8.679,2.868-10.909,2.868-4.421,0-10.948-6.212-14.036-2.414s-3.546,6.309-1.129,7.994,10.111-.632,13.8.105a92.841,92.841,0,0,0,13.212.522C325.614,264.519,325.54,260.189,324.172,257.813Z" transform="translate(-28.071 -31.219)" fill="url(#linear-gradient-4)"/>
    <path id="Path_120" data-name="Path 120" d="M349.755,223.909c-1.038-4.151-9.58,3.474-7.475,10.422,1.806,5.958,1.149,13.964,1.149,13.964l8.364,8.46C354.636,253.282,350.6,227.278,349.755,223.909Z" transform="translate(-37.86 -23.82)" fill="#144e9c"/>
    <path id="Path_121" data-name="Path 121" d="M344.018,255.344c-3.235-.472-7.865.739-12.252,2.081,1.368,2.377,1.442,6.707.934,9.075,7.392-.114,15.324-.81,16.9-2.733C349.6,263.767,353.388,256.713,344.018,255.344Z" transform="translate(-35.664 -30.831)" fill="#144e9c"/>
    <path id="Path_122" data-name="Path 122" d="M307.918,183.5c-1.757,3.415-1.562,15.027,3.318,16.1,4.262.937,6.635-3.22,6.635-3.22v-7.7a5.63,5.63,0,0,1-2.733-4.2c-.263-2.36-1.659-2.611-1.659-2.611A12.184,12.184,0,0,1,307.918,183.5Z" transform="translate(-30.303 -15.006)" fill="url(#linear-gradient-5)"/>
    <path id="Path_123" data-name="Path 123" d="M296.636,247.773c-2.2-4.435-3.667-10.027-4.956-13.182-2.434-5.955-2.83-14.258.539-16.153,6.211-3.18,8.843,7.758,9.265,10.932s1.264,10.595,3.58,13.254Z" transform="translate(-26.608 -22.77)" fill="#144e9c"/>
    <path id="Path_124" data-name="Path 124" d="M327.66,200.222c-4.21-2.631.483-17.146-6.578-22.731A9.261,9.261,0,0,0,306,185.034v20.812c2.3-.718,4.035-1.38,4.035-1.925v-6.113c-3.875-2.467-3.955-12.5-2.309-15.695a12.184,12.184,0,0,0,5.562-1.635s1.4.25,1.659,2.611a5.634,5.634,0,0,0,2.733,4.2v7.7c0,7.232,1.74,15.139,5.863,15.578s4.824-5,7.981-4.648C331.519,205.923,331.87,202.853,327.66,200.222Z" transform="translate(-30.107 -13.624)" fill="#0e427a"/>
    <path id="Path_125" data-name="Path 125" d="M304.544,242.618c-2.3,3.143-5.9,5.89-6.021,10.5,1.955,3.933,4.492,6.957,8.006,6.561,5.18-.584,6.971-6.677,7.584-12.256C310.654,247.686,306.246,244.948,304.544,242.618Z" transform="translate(-28.495 -28.109)" fill="#144e9c"/>
    <path id="Path_126" data-name="Path 126" d="M314.02,206.439c-.987.449-4.49,3.5-4.49,4.264s1.572,6.509,1.572,8.26a50.956,50.956,0,0,1-3.711,13.892,11.767,11.767,0,0,1-1.191,1.954c1.7,2.33,6.11,5.068,9.569,4.8a60.891,60.891,0,0,0,.312-6.588s.354-12.76.932-13.668a6.785,6.785,0,0,0,.524-3.355v-2.365s.8-.052.85-1.433q0-.062,0-.127C318.388,210.568,315.007,205.989,314.02,206.439Z" transform="translate(-30.15 -20.3)" fill="url(#linear-gradient-6)"/>
    <path id="Path_127" data-name="Path 127" d="M424.212,213.644V250.89s12.43.379,12.051,0,0-17.3,0-17.3Z" transform="translate(-55.602 -21.86)" fill="#144e9c"/>
    <path id="Path_128" data-name="Path 128" d="M452.994,265.541a73.969,73.969,0,0,1,0,17.916c-.385,3-9.224,29.824-9.224,29.824h21.549l5.933-28.416-7.875-21.708Z" transform="translate(-59.82 -32.539)" fill="url(#linear-gradient-7)"/>
    <path id="Path_129" data-name="Path 129" d="M452.509,265.541a73.967,73.967,0,0,1,0,17.916c-.385,3-10.987,30.049-10.987,30.049h23.312l5.934-28.642-7.875-21.708Z" transform="translate(-59.335 -32.539)" fill="url(#linear-gradient-8)"/>
    <path id="Path_130" data-name="Path 130" d="M481.845,256.774c3.174,9.949,17.4,13.167,13.476,29.238-2.833,11.6-8.611,26.118-8.611,26.118H459.815s8.434-25.292,8.434-28.642-5.3-20.563-5.3-20.563Z" transform="translate(-63.28 -31.162)" fill="url(#linear-gradient-9)"/>
    <path id="Path_131" data-name="Path 131" d="M428.555,202.9c-3.175,1.512-6.075,8.251-3.175,14.577s3.312,5.195,4.413,10.161.667,7.716,9.754,13.9,8.811,7.839,9.224,11,25.99,2.475,25.578-9.351.24-25.484-7.374-31.926S428.555,202.9,428.555,202.9Z" transform="translate(-55.596 -19.544)" fill="#144e9c"/>
    <path id="Path_132" data-name="Path 132" d="M425.708,184.232v35.5s12.889-6.915,12.774-13.681-5.827-21.818-5.827-21.818Z" transform="translate(-55.924 -15.517)" fill="#0e427a"/>
    <path id="Path_133" data-name="Path 133" d="M437.249,209.338s1.716,2.779,2.3,3.973-2,6.472-1.149,11,6.45,3.754,7.7,0c.377-1.131,1.378-9.159,1.378-9.159V201.873Z" transform="translate(-58.413 -19.322)" fill="url(#linear-gradient-10)"/>
    <path id="Path_134" data-name="Path 134" d="M439.547,213.31c3.622-4.058,7.371,13.123,1.434,13.995l.044.008.849.094a4.539,4.539,0,0,0,4.225-3.1c.377-1.131,1.378-9.159,1.378-9.159V201.873l-10.229,7.465S438.965,212.116,439.547,213.31Z" transform="translate(-58.413 -19.322)" fill="#cb9eae"/>
    <path id="Path_135" data-name="Path 135" d="M427.452,180.268c-1.761,10.921.176,20.99,5.443,22.182s12.815-4.566,12.815-9.648,5.091-18.32-.7-21.342S428.574,173.308,427.452,180.268Z" transform="translate(-56.164 -12.566)" fill="url(#linear-gradient-11)"/>
    <path id="Path_136" data-name="Path 136" d="M431.639,178.859a46.422,46.422,0,0,1-4.768,3.509c-2.018,1.2-1.524-5.726,2.384-8.98s9.032-6.024,11.109-4.155a9.51,9.51,0,0,1,10.457,4.847c3.947,6.647,4.224,12.6,5.47,14.265s3.324,2.7,2.355,5.817c0,0,6.925-1.385,7.963,3.393s.693,6.323.693,6.323a24.776,24.776,0,0,0-6.566-3.228s-2.973,2.341-5.812,2.341-6.416,11.455-11.4,11.455l-.042-27.278S432.218,185.731,431.639,178.859Z" transform="translate(-55.924 -12.152)" fill="#0e427a"/>
    <path id="Path_137" data-name="Path 137" d="M346.005,255.658c-13.083,13.624-24.352,55.179-24.352,55.179h18.782l11.739-27.59Z" transform="translate(-33.483 -30.921)" fill="url(#linear-gradient-12)"/>
    <path id="Path_138" data-name="Path 138" d="M420.71,255.141c-2.737-3.111-17.317-13.345-35.906-12.232-16.391.98-29.649,6.044-32.234,9.981-1.889,2.881,2.251,22.323,5.131,30.064A67.892,67.892,0,0,1,361.841,306s46.356-.27,46.626,0,5.761-17.1,6.481-25.743S414.048,262.072,420.71,255.141Z" transform="translate(-40.048 -28.154)" fill="url(#linear-gradient-13)"/>
    <path id="Path_139" data-name="Path 139" d="M402.594,222.364s.231,14.407,0,18.708-6.9,8.171-9.37,8.279-7.956-3.548-8.816-9.676V226.665Z" transform="translate(-47.017 -23.741)" fill="url(#linear-gradient-14)"/>
    <path id="Path_140" data-name="Path 140" d="M402.681,230.192c-.029-4.175-.087-7.828-.087-7.828l-18.186,4.3v10.668c1.515,6.668,11.572,4.846,13.967-1.474C399.747,232.236,400.921,231.161,402.681,230.192Z" transform="translate(-47.017 -23.741)" fill="#cb9eae"/>
    <path id="Path_141" data-name="Path 141" d="M378.252,211.7c.683,10.556,4.985,20.774,11.8,19.7,8.454-1.337,11.021-14.159,10.687-21.147s-4.316-11.357-10.378-11.363C384.6,198.885,377.674,202.768,378.252,211.7Z" transform="translate(-45.682 -18.678)" fill="url(#linear-gradient-15)"/>
    <path id="Path_142" data-name="Path 142" d="M408.6,218.594c-.453,2.1-1.477,3.7-2.287,3.566s-1.1-1.951-.649-4.056,1.476-3.7,2.287-3.566S409.053,216.488,408.6,218.594Z" transform="translate(-51.556 -22.051)" fill="url(#linear-gradient-16)"/>
    <path id="Path_143" data-name="Path 143" d="M378.076,212.856c-1.289-1.971-1.378-2.746-1.283-6.02s2.857-3.388,2.8-4.787,1.726-5.158,9.014-5.46,6.85,3.038,9.107,3.256,5.757,2.532,4.053,10.819c0,0-1.982.189-2.762,4.194a.36.36,0,0,1-.636.12,5.249,5.249,0,0,1-.667-1.535c-.544-2-2.725,1.007-3.121-2.984-.282-2.843-7.221,2.375-12.369-2.238,0,0-.765,1.018-2.958.953C377.979,209.136,378.076,212.856,378.076,212.856Z" transform="translate(-45.369 -18.178)" fill="#3298d3"/>
    <g id="Group_35" data-name="Group 35" transform="translate(331.155 215.353)">
      <path id="Path_144" data-name="Path 144" d="M382.689,261.248s.6.767,1.721-.944,4.955-6.908,6.283-6.395l-.005-.009c-2.7-.56-7.224-4.064-8-9.589v-.448c-2.144.3-4.2.664-6.153,1.077C376,247.993,378.285,257.874,382.689,261.248Z" transform="translate(-376.458 -243.73)" fill="#385fd4"/>
      <path id="Path_145" data-name="Path 145" d="M405.331,245.672c-.2,3.74-5.268,7.153-8.212,8.05h0c1.39-.541,6.5,6.179,7.384,7.66s2.511-.523,4.13-4.655c1.174-3,2.99-8.168,2.228-11.818a52.285,52.285,0,0,0-5.465-1.216C405.38,244.471,405.359,245.15,405.331,245.672Z" transform="translate(-380.914 -243.694)" fill="#385fd4"/>
    </g>
    <path id="Path_146" data-name="Path 146" d="M382.871,243.573V240.44c-2.718,1.194-5.236,2.2-5.513,3.758-.543,3.048,1.9,11.906,5.513,15.033,0,0,.6.767,1.721-.944s4.955-5.629,6.283-5.115l-.005-.009C388.173,252.6,383.646,249.1,382.871,243.573Z" transform="translate(-45.481 -27.639)" fill="url(#linear-gradient-17)"/>
    <path id="Path_147" data-name="Path 147" d="M409.879,242.744c-.752-1.7-3.192-3.084-4.442-3.675-.006,2.313-.035,4.374-.1,5.606-.2,3.74-5.268,7.153-8.212,8.05h0c1.39-.541,6.5,4.9,7.384,6.381s1.98-.246,3.777-4.3C410.114,250.674,411.106,245.52,409.879,242.744Z" transform="translate(-49.76 -27.344)" fill="url(#linear-gradient-18)"/>
    <path id="Path_148" data-name="Path 148" d="M445.381,300.748c0-11.946-3.481-35.89-9-42.221,0,0-8.642,4.622-11.375,19.272-.817,4.377.573,16.884.933,22.164Z" transform="translate(-55.718 -31.54)" fill="url(#linear-gradient-12)"/>
    <path id="Path_149" data-name="Path 149" d="M408.038,322.443h26.221c3.884,0,8.061-3.171,7.476-11.76s-14.642-7.386-19.443-.785L407.844,312.1Z" transform="translate(-52.072 -41.475)" fill="url(#linear-gradient-12)"/>
    <path id="Path_150" data-name="Path 150" d="M386.831,323.593l1.241-1.162,3.771,1.336a6.1,6.1,0,0,0,2.039.351h7.486a4.956,4.956,0,0,0,3.657-4.939,5.11,5.11,0,0,0-5.051-5.4h-8.206a5.941,5.941,0,0,1-1.224-.127l-5.836-1.219a3.591,3.591,0,0,0-2.525.4l-3.307,1.9a8.365,8.365,0,0,0-1.751,1.341l-6,6.015a1.188,1.188,0,0,0,.842,2.027H385.5A1.938,1.938,0,0,0,386.831,323.593Z" transform="translate(-44.077 -43.149)" fill="url(#linear-gradient-21)"/>
    <path id="Path_151" data-name="Path 151" d="M468.281,215.3c-5.621-3.249-15.473,5.992-13.353,16.914s-9.876,24.475-9.876,24.475-13.595,5.46-19.052,6.493a21.142,21.142,0,0,1,3.479,8.176c8.929-.736,21.739-2.551,26.918-6.866,7.825-6.521,16.137-30.567,16.139-38.207C472.536,217.4,468.281,215.3,468.281,215.3Z" transform="translate(-55.987 -22.076)" fill="#144e9c"/>
    <path id="Path_152" data-name="Path 152" d="M415.669,276.7H398.092s-12.552,4.252-12.879,4.979-.978,5.051,0,6.068,7.336,2.81,8.966,2.485,14.345-5.054,17.28-5.054c.993,0,4.546-.094,9.111-.47a21.142,21.142,0,0,0-3.479-8.176A8.1,8.1,0,0,1,415.669,276.7Z" transform="translate(-47.08 -35.424)" fill="url(#linear-gradient-22)"/>
    <path id="Path_153" data-name="Path 153" d="M280.564,259.265s4.4,3.485,8.909,0,1.4-9.437,1.4-9.437l-10.311,5.493Z" transform="translate(-24.622 -29.664)" fill="url(#linear-gradient-23)"/>
    <path id="Path_154" data-name="Path 154" d="M286.335,220.225v26.059h-8.474V221.651Z" transform="translate(-24.039 -23.28)" fill="url(#linear-gradient-24)"/>
    <g id="Group_36" data-name="Group 36" transform="translate(218.343 242.17)">
      <path id="Path_155" data-name="Path 155" d="M268.743,297.779c-.815,4.348-5.45,10.457-8.4,19.274h16.84c1.616-10.593,3.075-24.812.772-37.452h-9.711C269.144,283.862,269.51,293.688,268.743,297.779Z" transform="translate(-238.604 -278.255)" fill="url(#linear-gradient-25)"/>
      <path id="Path_156" data-name="Path 156" d="M250.461,296.837s1.949,9.461,3.281,20.216h4.472c2.948-8.818,7.582-14.926,8.4-19.274.767-4.091.4-13.917-.5-18.178H250.863Z" transform="translate(-236.472 -278.255)" fill="url(#linear-gradient-26)"/>
      <path id="Path_157" data-name="Path 157" d="M262.269,279.231a9.061,9.061,0,0,0-.37-1.346H232.626c.4,14.09,1.514,28.111,2.181,38.8h19.561c2.948-8.818,7.582-14.926,8.4-19.274C263.532,293.318,263.166,283.491,262.269,279.231Z" transform="translate(-232.626 -277.885)" fill="url(#linear-gradient-27)"/>
    </g>
    <path id="Path_158" data-name="Path 158" d="M249.515,190.279c-17.316-4.646-29.011,3.085-30.931,14.186-1.753,10.139,10.978,41.534,10.978,54.23,0,0,20.524,10.579,39.354,1.346,0,0-2.824-13.465,0-25.391s6.579-18.759,3.389-27.314C269.518,199.86,257.614,192.452,249.515,190.279Z" transform="translate(-11.219 -16.525)" fill="url(#linear-gradient-28)"/>
    <path id="Path_159" data-name="Path 159" d="M263.546,176.017s-6.536,8.22-9.293,10.839,2.331,7.979,6.191,10.254c2.55,1.5,7.926,3.171,6.341-1.516,0,0-.9-2.62,3.446-6.341C270.231,189.252,265.406,174.846,263.546,176.017Z" transform="translate(-18.778 -13.731)" fill="url(#linear-gradient-29)"/>
    <path id="Path_160" data-name="Path 160" d="M272.61,190a95.21,95.21,0,0,0-4.253-10.57l-2.129,1c-2.48,5.088-2.926,14.675,2.935,15.907C269.164,196.345,268.268,193.725,272.61,190Z" transform="translate(-21.157 -14.482)" fill="#cb9eae"/>
    <path id="Path_161" data-name="Path 161" d="M268.634,172.526c.554-3.133-2.247-3.369-3.126-.753-1,2.988.1,5.06,1.253,4.37,0,0-2.232,6.749.577,10.814s6.4,2.5,10.88-1.913c3.856-3.8,6.366-8.436,6.755-10.222,1.017-4.662-3.825-8.433-8.369-8.189C271.045,166.932,268.634,172.526,268.634,172.526Z" transform="translate(-21.29 -11.719)" fill="url(#linear-gradient-30)"/>
    <path id="Path_162" data-name="Path 162" d="M269.172,171.2c-.175,1.846.127,3.275,1.213,2.646s3.656-4.34,6-1.657,4.24,5.184,8.4,4.741c5.37-.571,6.614-7.838,1.885-9.139,0,0,2.056-2.5-1.6-3.656-3.347-1.061-3.481-.4-5.823-3.031-1.347-1.512-9.428-.706-11.631,7.6C267.61,168.705,269.445,168.33,269.172,171.2Z" transform="translate(-21.828 -10.397)" fill="#3298d3"/>
    <path id="Path_163" data-name="Path 163" d="M231.572,232.144c.172-3.61,2.4-12.978,5.555-18.963s1.6-13.681-2.678-16.694c-4.252-2.992-10.214-2.461-13.038,1.706-7.593,11.208-5.388,36.407-1.293,44.912.813,1.689,2.773,2.786,5.432,3.446C219.786,243.917,225.566,230.771,231.572,232.144Z" transform="translate(-10.778 -17.751)" fill="url(#linear-gradient-31)"/>
    <path id="Path_164" data-name="Path 164" d="M264.163,251.579l11.375-13.764a1.955,1.955,0,0,1,2.027-.639l19.3,5.318a.625.625,0,0,1,.253,1.067l-14.6,13.177a1.266,1.266,0,0,1-1.14.293l-16.713-3.952A.93.93,0,0,1,264.163,251.579Z" transform="translate(-21.038 -26.92)" fill="#0e427a"/>
    <path id="Path_165" data-name="Path 165" d="M269.423,247.261a6.364,6.364,0,0,0-3.653-3.622c-.8-.229-6.754-.125-9.952-.052a6.885,6.885,0,0,0-3.507,1.046,8.057,8.057,0,0,1-2.887,1.333H239.372a35.1,35.1,0,0,0-5.931-3.525c-6.006-1.373-11.786,11.773-6.022,14.407,9.694,2.4,28.825-1.106,36.867-3.853a8.807,8.807,0,0,0,4.433-3.27A2.96,2.96,0,0,0,269.423,247.261Z" transform="translate(-12.647 -28.05)" fill="url(#linear-gradient-32)"/>
    <line id="Line_4" data-name="Line 4" x2="258.381" transform="translate(188.663 280.961)" fill="none" stroke="#001462" stroke-miterlimit="10" stroke-width="1"/>
    <path id="Path_166" data-name="Path 166" d="M368.282,328.992h27.541a2.859,2.859,0,0,0,2.86-2.86h0a1.3,1.3,0,0,0-1.3-1.3h-29.1a1.3,1.3,0,0,0-1.3,1.3v1.556A1.3,1.3,0,0,0,368.282,328.992Z" transform="translate(-43.258 -45.839)" fill="#144e9c"/>
    <path id="Path_167" data-name="Path 167" d="M302.2,317.69h57.529a3.362,3.362,0,0,0,3.242-4.252l-10.154-36.963a5.512,5.512,0,0,0-5.315-4.052H289.976a3.361,3.361,0,0,0-3.242,4.252l10.154,36.963A5.511,5.511,0,0,0,302.2,317.69Z" transform="translate(-25.926 -34.537)" fill="#144e9c"/>
  </g>
</svg>
