<svg xmlns="http://www.w3.org/2000/svg" width="59.619" height="12.61" viewBox="0 0 59.619 12.61">
  <g id="Group_2" data-name="Group 2" transform="translate(-128.539 -312.61)">
    <path id="Path_1" data-name="Path 1" d="M223.462,345.734a.591.591,0,0,1-.317-.536.47.47,0,0,1,.109-.323.343.343,0,0,1,.268-.124,1.1,1.1,0,0,1,.466.159,4.318,4.318,0,0,0,.58.228,2.358,2.358,0,0,0,.67.079,1.272,1.272,0,0,0,.65-.139.43.43,0,0,0,.233-.387.373.373,0,0,0-.094-.268.865.865,0,0,0-.337-.184,7.171,7.171,0,0,0-.739-.193,2.835,2.835,0,0,1-1.265-.506,1.125,1.125,0,0,1-.382-.9,1.3,1.3,0,0,1,.258-.789,1.671,1.671,0,0,1,.709-.546,2.583,2.583,0,0,1,1.027-.193,3.076,3.076,0,0,1,.8.1,2.444,2.444,0,0,1,.694.3.6.6,0,0,1,.317.526.509.509,0,0,1-.109.332.334.334,0,0,1-.268.134.537.537,0,0,1-.213-.045,2.864,2.864,0,0,1-.263-.134,4.156,4.156,0,0,0-.5-.223,1.549,1.549,0,0,0-.516-.074,1,1,0,0,0-.58.149.47.47,0,0,0-.213.407.413.413,0,0,0,.218.377,3.118,3.118,0,0,0,.843.258,4.821,4.821,0,0,1,1.042.317,1.221,1.221,0,0,1,.541.447,1.3,1.3,0,0,1,.164.684,1.272,1.272,0,0,1-.561,1.081,2.487,2.487,0,0,1-1.493.407,3.189,3.189,0,0,1-1.746-.427" transform="translate(-82.019 -24.709)" fill="#6d6d6d"/>
    <path id="Path_2" data-name="Path 2" d="M259.087,336.679a.4.4,0,0,1-.193.362.925.925,0,0,1-.551.1l-.268-.02a1.6,1.6,0,0,1-1.667-1.785v-2.163h-.5a.629.629,0,0,1-.412-.119.491.491,0,0,1,0-.695.63.63,0,0,1,.412-.119h.5v-.913a.558.558,0,0,1,.169-.427.639.639,0,0,1,.456-.159.627.627,0,0,1,.447.159.558.558,0,0,1,.168.427v.913h.843a.631.631,0,0,1,.412.119.491.491,0,0,1,0,.695.631.631,0,0,1-.412.119h-.843v2.252q0,.734.675.784l.268.02q.5.03.5.446" transform="translate(-109.945 -15.724)" fill="#6d6d6d"/>
    <path id="Path_3" data-name="Path 3" d="M291.806,341.419a.558.558,0,0,1,.169.427v3.849a.538.538,0,0,1-.174.417.644.644,0,0,1-.451.159.6.6,0,0,1-.427-.149.53.53,0,0,1-.159-.407v-.248a1.583,1.583,0,0,1-.615.61,1.78,1.78,0,0,1-.873.213q-1.786,0-1.786-2v-2.44a.558.558,0,0,1,.169-.427.625.625,0,0,1,.446-.159.64.64,0,0,1,.456.159.558.558,0,0,1,.169.427v2.45a1.17,1.17,0,0,0,.208.764.808.808,0,0,0,.655.248,1.068,1.068,0,0,0,.828-.342,1.294,1.294,0,0,0,.312-.908v-2.212a.557.557,0,0,1,.169-.427.625.625,0,0,1,.446-.159.64.64,0,0,1,.456.159" transform="translate(-137.804 -24.838)" fill="#6d6d6d"/>
    <path id="Path_4" data-name="Path 4" d="M333.122,325.686a.531.531,0,0,1,.179.417v5.932a.558.558,0,0,1-.169.427.707.707,0,0,1-.893,0,.557.557,0,0,1-.169-.427v-.248a1.552,1.552,0,0,1-.63.635,1.9,1.9,0,0,1-.937.228,2.011,2.011,0,0,1-1.116-.317,2.106,2.106,0,0,1-.764-.9,3.1,3.1,0,0,1-.273-1.334,3,3,0,0,1,.273-1.319,2,2,0,0,1,1.88-1.18,1.943,1.943,0,0,1,.932.218,1.517,1.517,0,0,1,.625.615v-2.351a.526.526,0,0,1,.164-.4.619.619,0,0,1,.441-.154.662.662,0,0,1,.456.159m-1.374,5.6a1.831,1.831,0,0,0,.322-1.161,1.81,1.81,0,0,0-.322-1.156,1.1,1.1,0,0,0-.908-.4,1.129,1.129,0,0,0-.923.4,1.751,1.751,0,0,0-.327,1.141,1.854,1.854,0,0,0,.327,1.171,1.223,1.223,0,0,0,1.83.01" transform="translate(-173.226 -11.198)" fill="#6d6d6d"/>
    <path id="Path_5" data-name="Path 5" d="M374.695,341.355a.539.539,0,0,1,.293-.084.624.624,0,0,1,.412.154.479.479,0,0,1,.184.382.512.512,0,0,1-.059.228l-2.708,5.675a.554.554,0,0,1-.526.337.612.612,0,0,1-.4-.144.451.451,0,0,1-.174-.362.638.638,0,0,1,.06-.248l.675-1.419-1.845-3.839a.5.5,0,0,1-.05-.228.484.484,0,0,1,.193-.387.677.677,0,0,1,.442-.159.582.582,0,0,1,.307.084.565.565,0,0,1,.218.263l1.389,3.065,1.379-3.055a.575.575,0,0,1,.213-.263" transform="translate(-209.814 -24.839)" fill="#6d6d6d"/>
    <path id="Path_6" data-name="Path 6" d="M420.33,341.582a2.254,2.254,0,0,1,.422,1.523v2.441a.559.559,0,0,1-.174.441.656.656,0,0,1-.451.154.642.642,0,0,1-.442-.154.558.558,0,0,1-.174-.441v-2.441a1.228,1.228,0,0,0-.193-.779.724.724,0,0,0-.59-.233.971.971,0,0,0-.774.332,1.34,1.34,0,0,0-.288.908v2.212a.559.559,0,0,1-.174.441.642.642,0,0,1-.442.154.661.661,0,0,1-.446-.154.551.551,0,0,1-.179-.441v-2.441a1.227,1.227,0,0,0-.193-.779.724.724,0,0,0-.59-.233.957.957,0,0,0-.769.332,1.356,1.356,0,0,0-.283.908v2.212a.55.55,0,0,1-.179.441.661.661,0,0,1-.446.154.642.642,0,0,1-.441-.154.558.558,0,0,1-.174-.441v-3.839a.524.524,0,0,1,.179-.427.673.673,0,0,1,.446-.149.617.617,0,0,1,.422.144.52.52,0,0,1,.164.412v.238a1.553,1.553,0,0,1,.61-.605,1.8,1.8,0,0,1,.878-.208,1.421,1.421,0,0,1,1.458.913,1.639,1.639,0,0,1,.645-.665,1.881,1.881,0,0,1,.962-.248,1.546,1.546,0,0,1,1.215.471" transform="translate(-246.918 -24.709)" fill="#6d6d6d"/>
    <path id="Path_7" data-name="Path 7" d="M480.3,341.613a2.1,2.1,0,0,1,.491,1.523v2.42a.56.56,0,0,1-.159.422.6.6,0,0,1-.437.154.58.58,0,0,1-.422-.159.554.554,0,0,1-.164-.417v-.218a1.294,1.294,0,0,1-.531.6,1.592,1.592,0,0,1-.838.218,1.948,1.948,0,0,1-.883-.2,1.57,1.57,0,0,1-.625-.546,1.378,1.378,0,0,1-.228-.774,1.225,1.225,0,0,1,.273-.843,1.64,1.64,0,0,1,.888-.447,8.1,8.1,0,0,1,1.7-.139h.248v-.228a1.016,1.016,0,0,0-.208-.709.887.887,0,0,0-.675-.223,2.14,2.14,0,0,0-.585.084q-.3.084-.7.243a.993.993,0,0,1-.377.129.373.373,0,0,1-.293-.129.49.49,0,0,1-.114-.337.508.508,0,0,1,.084-.293.8.8,0,0,1,.283-.233,3.241,3.241,0,0,1,.828-.3,4.271,4.271,0,0,1,.947-.109,2.022,2.022,0,0,1,1.5.5m-1,3.323a1.2,1.2,0,0,0,.313-.858v-.208h-.179a6.816,6.816,0,0,0-1.032.06,1,1,0,0,0-.526.208.53.53,0,0,0-.159.407.673.673,0,0,0,.223.521.787.787,0,0,0,.551.2,1.059,1.059,0,0,0,.808-.333" transform="translate(-301.669 -24.71)" fill="#6d6d6d"/>
    <path id="Path_8" data-name="Path 8" d="M516.024,336.679a.4.4,0,0,1-.193.362.925.925,0,0,1-.551.1l-.268-.02a1.6,1.6,0,0,1-1.667-1.785v-2.163h-.5a.63.63,0,0,1-.412-.119.491.491,0,0,1,0-.695.63.63,0,0,1,.412-.119h.5v-.913a.557.557,0,0,1,.169-.427.639.639,0,0,1,.456-.159.626.626,0,0,1,.447.159.558.558,0,0,1,.169.427v.913h.843a.63.63,0,0,1,.412.119.491.491,0,0,1,0,.695.63.63,0,0,1-.412.119h-.843v2.252q0,.734.675.784l.268.02q.5.03.5.446" transform="translate(-332.697 -15.724)" fill="#6d6d6d"/>
    <path id="Path_9" data-name="Path 9" d="M547.018,344.882a.536.536,0,0,1,.1.347.6.6,0,0,1-.367.516,3.315,3.315,0,0,1-.764.3,3.153,3.153,0,0,1-.814.114,2.528,2.528,0,0,1-1.855-.675,2.473,2.473,0,0,1-.685-1.845,2.831,2.831,0,0,1,.3-1.319,2.165,2.165,0,0,1,.838-.893,2.375,2.375,0,0,1,1.225-.317,2.2,2.2,0,0,1,1.141.288,1.953,1.953,0,0,1,.754.813,2.7,2.7,0,0,1,.268,1.24q0,.427-.377.427h-2.926a1.561,1.561,0,0,0,.387,1.007,1.3,1.3,0,0,0,.952.322,1.8,1.8,0,0,0,.56-.079,5.466,5.466,0,0,0,.551-.218,1.1,1.1,0,0,1,.437-.159.334.334,0,0,1,.273.129m-2.8-2.579a1.5,1.5,0,0,0-.362.913H546.1a1.416,1.416,0,0,0-.3-.918.982.982,0,0,0-.774-.312,1.065,1.065,0,0,0-.808.317" transform="translate(-359.004 -24.71)" fill="#6d6d6d"/>
    <path id="Path_10" data-name="Path 10" d="M129.585,333.1l-1.046,7.076a7.553,7.553,0,0,1,5.314,2.808q.028-3.634.055-7.269a4.709,4.709,0,0,0-1.322-1.625,4.861,4.861,0,0,0-3-.991" transform="translate(0 -17.76)" fill="#124e9e"/>
    <path id="Path_11" data-name="Path 11" d="M175.285,333.1l1.046,7.076a7.553,7.553,0,0,0-5.314,2.808q-.028-3.634-.055-7.269a4.712,4.712,0,0,1,1.322-1.625,4.861,4.861,0,0,1,3-.991" transform="translate(-36.779 -17.76)" fill="#309ad5"/>
    <path id="Path_12" data-name="Path 12" d="M147.991,313.959a1.322,1.322,0,1,0,1.322-1.349,1.336,1.336,0,0,0-1.322,1.349" transform="translate(-16.864)" fill="#124e9e"/>
    <path id="Path_13" data-name="Path 13" d="M172.411,313.959a1.322,1.322,0,1,0,1.322-1.349,1.336,1.336,0,0,0-1.322,1.349" transform="translate(-38.035)" fill="#309ad5"/>
  </g>
</svg>
