<svg xmlns="http://www.w3.org/2000/svg" xmlns:xlink="http://www.w3.org/1999/xlink" width="159.709" height="111.007" viewBox="0 0 159.709 111.007">
  <defs>
    <clipPath id="clip-path">
      <path id="Path_77" data-name="Path 77" d="M315.165,220.135c-23.031-13.048-33.9-53.134-69.457-29.18s-20.812,73.17,13.26,85.072,77.908,5.179,90.244-16.932C370.291,221.312,330.615,228.887,315.165,220.135Z" transform="translate(-225.203 -183.473)" fill="none"/>
    </clipPath>
  </defs>
  <g id="Group_33" data-name="Group 33" transform="translate(-184.04 -177.715)">
    <path id="Path_75" data-name="Path 75" d="M315.165,220.135c-23.031-13.048-33.9-53.134-69.457-29.18s-20.812,73.17,13.26,85.072,77.908,5.179,90.244-16.932C370.291,221.312,330.615,228.887,315.165,220.135Z" transform="translate(-13.293 -2.153)" fill="#dceeff"/>
    <g id="Group_24" data-name="Group 24" transform="translate(211.91 181.32)">
      <g id="Group_23" data-name="Group 23" transform="translate(0)" clip-path="url(#clip-path)">
        <path id="Path_76" data-name="Path 76" d="M220.016,283.336s19.64-18.463,52.444-9.7,52.118,1.25,48.045-45.174c0,0,46.107,6.031,40.2,36.744C353.526,302.476,260.927,316.7,220.016,283.336Z" transform="translate(-223.48 -200.296)" fill="#d7ebff"/>
      </g>
    </g>
    <path id="Path_78" data-name="Path 78" d="M185.19,247.49a16.28,16.28,0,0,1,1.233-1.2c.845-.681,1.813-1.884,4.91-1,.241.069.474.16.706.252a2.387,2.387,0,0,0,1.985-.533c1.376-1.025,1.915-1.8,3.8-1.822,2.194-.028,2.54,2.536,4.244,3.193,1.086.418,3.949.833,4.541,1.018Z" transform="translate(0 -24.484)" fill="none" stroke="#d7ebff" stroke-miterlimit="10" stroke-width="1"/>
    <path id="Path_79" data-name="Path 79" d="M359.565,186.176a31.963,31.963,0,0,1,2.426-2.365c1.66-1.339,3.564-3.7,9.653-1.961a14.552,14.552,0,0,1,1.388.5,4.7,4.7,0,0,0,3.9-1.049c2.707-2.014,3.764-3.534,7.472-3.582,4.314-.055,4.992,4.986,8.345,6.277,2.134.821,7.762,1.637,8.927,2Z" transform="translate(-57.929 0)" fill="#d7ebff"/>
    <g id="Group_25" data-name="Group 25" transform="translate(225.096 200.405)">
      <path id="Path_80" data-name="Path 80" d="M308.555,214.793l-.311-.835-.311.835a3.012,3.012,0,0,1-1.728,1.65h0a3.012,3.012,0,0,1,1.728,1.65l.311.836.311-.836a3.015,3.015,0,0,1,1.729-1.65h0A3.015,3.015,0,0,1,308.555,214.793Z" transform="translate(-265.299 -213.958)" fill="#fff"/>
      <path id="Path_81" data-name="Path 81" d="M266.452,291.089l-.311-.836-.311.836a3.015,3.015,0,0,1-1.729,1.65h0a3.013,3.013,0,0,1,1.729,1.65l.311.835.311-.835a3.011,3.011,0,0,1,1.729-1.65h0A3.013,3.013,0,0,1,266.452,291.089Z" transform="translate(-251.312 -242.489)" fill="#fff"/>
      <path id="Path_82" data-name="Path 82" d="M393.074,283.22l-.205-.551-.206.551a1.988,1.988,0,0,1-1.141,1.089h0a1.986,1.986,0,0,1,1.141,1.089l.206.551.205-.551a1.987,1.987,0,0,1,1.141-1.089h0A1.99,1.99,0,0,1,393.074,283.22Z" transform="translate(-293.643 -239.653)" fill="#fff"/>
      <path id="Path_83" data-name="Path 83" d="M246.5,238.931l-.206-.552-.2.552a1.989,1.989,0,0,1-1.141,1.089h0a1.989,1.989,0,0,1,1.141,1.089l.2.551.206-.551a1.989,1.989,0,0,1,1.141-1.089h0A1.989,1.989,0,0,1,246.5,238.931Z" transform="translate(-244.949 -223.091)" fill="#fff"/>
    </g>
    <path id="Path_84" data-name="Path 84" d="M328.922,279h22.569a8.692,8.692,0,0,0,8.826-7.417l3.255-31.76H341.015l-.461,18.415Z" transform="translate(-47.749 -23.224)" fill="#c2e6ff"/>
    <path id="Path_85" data-name="Path 85" d="M328.922,279h22.569a8.692,8.692,0,0,0,8.826-7.417l3.255-31.76" transform="translate(-47.749 -23.224)" fill="none" stroke="#3d415b" stroke-linecap="round" stroke-linejoin="round" stroke-width="2.653"/>
    <line id="Line_2" data-name="Line 2" y2="22.43" transform="translate(294.078 256.371)" fill="none" stroke="#3d415b" stroke-miterlimit="10" stroke-width="2.496"/>
    <rect id="Rectangle_602" data-name="Rectangle 602" width="72.754" height="1.061" transform="translate(298.339 236.418) rotate(180)" fill="#3d415b"/>
    <path id="Path_86" data-name="Path 86" d="M339.709,345.946l.773,2.595-3.759,1.068-1.176-3.2Z" transform="translate(-49.95 -62.912)" fill="#e3bc9a"/>
    <path id="Path_87" data-name="Path 87" d="M307.792,342.938v2.083h3.328l.372-2.083Z" transform="translate(-40.73 -61.787)" fill="#e3bc9a"/>
    <g id="Group_26" data-name="Group 26" transform="translate(265.886 217.001)">
      <path id="Path_88" data-name="Path 88" d="M335,244.344l-5.027,11.633-.112.259a1.9,1.9,0,0,1-1.766,1.107l-14.315-.1a.98.98,0,0,1-.144-1.955l14.166-1.939-1.878,1.365,3.384-12.145a3.029,3.029,0,0,1,3.668-2.013A2.806,2.806,0,0,1,335.123,244,2.9,2.9,0,0,1,335,244.344Z" transform="translate(-308.259 -240.468)" fill="#d8ac89"/>
      <path id="Path_89" data-name="Path 89" d="M313.107,263.718l-4.888-.1a2.238,2.238,0,0,0-2.188,2.285h7.139Z" transform="translate(-306.03 -249.127)" fill="#d8ac89"/>
    </g>
    <g id="Group_27" data-name="Group 27" transform="translate(284.713 213.822)">
      <path id="Path_90" data-name="Path 90" d="M334.223,243.86l7.827,1.792,1.284-6.54a3.2,3.2,0,0,0-2.879-3.689h0a3.474,3.474,0,0,0-3.729,2.054Z" transform="translate(-334.223 -235.39)" fill="#314f99"/>
    </g>
    <path id="Path_91" data-name="Path 91" d="M332.626,269.234,308.51,280.707a5.86,5.86,0,0,0-3.443,5.621l1.816,29.048h3.7l4.992-31.08,18.775-12.359Z" transform="translate(-39.821 -34.224)" fill="#214284"/>
    <path id="Path_92" data-name="Path 92" d="M336.657,205.64s6.7-2.136,10.222,3.814a5.964,5.964,0,0,0,.7.98,9.372,9.372,0,0,0,3.85,2.723c6.522,1.876,10.649,13.437-2.333,14.467-16.246,1.287-20.859-1.716-18.535-7.787a9.893,9.893,0,0,0,.178-7.4Z" transform="translate(-48.107 -10.303)" fill="#282c3c"/>
    <path id="Path_93" data-name="Path 93" d="M344.582,230.648l-3.468,1.447A5.3,5.3,0,0,0,337.752,237c.053,4.268,1.086,14.867,4.933,18.922h11.724c1.816-7.509.77-19.048.77-19.048a5.555,5.555,0,0,0-5.1-5.607Z" transform="translate(-50.683 -19.795)" fill="#5f98d1"/>
    <g id="Group_30" data-name="Group 30" transform="translate(281.224 195.337)">
      <g id="Group_29" data-name="Group 29" transform="translate(0 0)">
        <g id="Group_28" data-name="Group 28" transform="translate(2.207 3.535)">
          <path id="Path_94" data-name="Path 94" d="M346.752,230.686h0a2.22,2.22,0,0,1-2.486-1.824l-.954-6.986,4.46-.486.947,6.937A2.138,2.138,0,0,1,346.752,230.686Z" transform="translate(-335.961 -215.205)" fill="#ddb28d"/>
          <path id="Path_113" data-name="Path 113" d="M0,0,11.023.089l.053,6.145A5.161,5.161,0,0,1,5.7,11.284H5.518A5.372,5.372,0,0,1,.053,6.145Z" transform="matrix(0.992, -0.129, 0.129, 0.992, 0, 1.434)" fill="#e3bc9a"/>
        </g>
        <path id="Path_95" data-name="Path 95" d="M343.35,213.242l-.933,1.815s-1.243,1.01-1.6-1.528c-.3-2.149-1.962-1.776-1.962-1.776s-5.7,4.044-9.051,1.269c-2.643-2.19,1.629-6.2,6.517-7.159l6.411,2.626Z" transform="translate(-328.999 -205.863)" fill="#282c3c"/>
        <path id="Path_96" data-name="Path 96" d="M348.117,219.531a1.789,1.789,0,0,0,2.014,1.481,1.723,1.723,0,0,0,1.579-1.888,1.789,1.789,0,0,0-2.013-1.481A1.723,1.723,0,0,0,348.117,219.531Z" transform="translate(-335.346 -210.263)" fill="#e3bc9a"/>
        <path id="Path_97" data-name="Path 97" d="M350.328,221.4a.323.323,0,0,0,.363.267.311.311,0,0,0,.284-.341.323.323,0,0,0-.363-.267A.311.311,0,0,0,350.328,221.4Z" transform="translate(-336.084 -211.546)" fill="#fff"/>
      </g>
      <path id="Path_98" data-name="Path 98" d="M336.482,225.421l3.071-.612s.148,1.251-1.534,1.476A1.238,1.238,0,0,1,336.482,225.421Z" transform="translate(-331.485 -212.948)" fill="#fff"/>
    </g>
    <path id="Path_99" data-name="Path 99" d="M346.3,271.02H334.573l-18.756,10.624a4.667,4.667,0,0,0-2.047,6.067l14.4,30.675,4.163-.46-7.738-29.6c6.494-.257,18.554-1.177,21.705-4.469C351.629,278.284,346.3,271.02,346.3,271.02Z" transform="translate(-42.571 -34.892)" fill="#314f99"/>
    <path id="Path_100" data-name="Path 100" d="M292.228,240.274l6.689,16.854H277.177l-6.188-15.876a.735.735,0,0,1,.729-.978Z" transform="translate(-28.487 -23.395)" fill="#93b7fa"/>
    <path id="Path_101" data-name="Path 101" d="M302.819,240.274h1.04a1.333,1.333,0,0,1,1.252.818l6.308,16.035h-1.911Z" transform="translate(-39.078 -23.395)" fill="#a9c9fa"/>
    <path id="Rectangle_604" data-name="Rectangle 604" d="M0,0H21.681a0,0,0,0,1,0,0V1.624a0,0,0,0,1,0,0H1.624A1.624,1.624,0,0,1,0,0V0A0,0,0,0,1,0,0Z" transform="translate(248.749 233.733)" fill="#82a7e7"/>
    <path id="Path_102" data-name="Path 102" d="M312.836,268.819h13.417a.84.84,0,0,0,.866-.812h0a.841.841,0,0,0-.866-.812H312.836Z" transform="translate(-42.405 -33.462)" fill="#8eb6ec"/>
    <path id="Path_103" data-name="Path 103" d="M292.747,252.693a2.009,2.009,0,0,1-1.109,2.684,2.2,2.2,0,0,1-2.6-1.533,2.008,2.008,0,0,1,1.109-2.684A2.2,2.2,0,0,1,292.747,252.693Z" transform="translate(-34.452 -27.436)" fill="#ecf2f5"/>
    <g id="Group_31" data-name="Group 31" transform="translate(275.028 216.663)">
      <path id="Path_104" data-name="Path 104" d="M348.719,243.824l-5.036,11.856-.111.262a1.919,1.919,0,0,1-1.785,1.127l-14.317-.088a.989.989,0,0,1-.148-1.973l14.162-1.966-1.9,1.389,3.375-12.364a3.055,3.055,0,0,1,3.69-2.05,2.834,2.834,0,0,1,2.186,3.46A3.025,3.025,0,0,1,348.719,243.824Z" transform="translate(-321.946 -239.927)" fill="#e3bc9a"/>
      <path id="Path_105" data-name="Path 105" d="M326.8,263.564l-4.888-.1a2.261,2.261,0,0,0-2.188,2.327h7.139Z" transform="translate(-319.721 -248.731)" fill="#e3bc9a"/>
    </g>
    <g id="Group_32" data-name="Group 32" transform="translate(293.855 213.396)">
      <path id="Path_106" data-name="Path 106" d="M347.914,243.337l7.827,1.825,1.284-6.662a3.25,3.25,0,0,0-2.88-3.757h0a3.463,3.463,0,0,0-3.729,2.092Z" transform="translate(-347.914 -234.709)" fill="#314f99"/>
    </g>
    <path id="Path_107" data-name="Path 107" d="M330.133,347.611l-1.826,1.69-4.1.936a1.26,1.26,0,0,0-.909.772l-.208.557a.425.425,0,0,0,.432.559l13.21-.3a.718.718,0,0,0,.729-.756l-1.041-3.508-2,.448a2.6,2.6,0,0,1-2.006-.195l-.71-.388A1.368,1.368,0,0,0,330.133,347.611Z" transform="translate(-45.802 -63.403)" fill="#29323d"/>
    <path id="Path_108" data-name="Path 108" d="M301.742,343.724l-1.826,1.69-4.1.937a1.257,1.257,0,0,0-.909.772l-.209.557a.425.425,0,0,0,.433.559L307.083,348a.718.718,0,0,0,.728-.756l-.31-3.584-1.474.46a2.6,2.6,0,0,1-2.006-.2l-.71-.387A1.368,1.368,0,0,0,301.742,343.724Z" transform="translate(-36.37 -61.949)" fill="#29323d"/>
    <path id="Path_109" data-name="Path 109" d="M263.814,258.453s5.531.019,4.382-5.32C268.2,253.133,262.392,253.671,263.814,258.453Z" transform="translate(-26.045 -28.203)" fill="#93b7fa"/>
    <path id="Path_110" data-name="Path 110" d="M260.6,257.956s-5.6.019-4.437-5.385C256.163,252.571,262.039,253.116,260.6,257.956Z" transform="translate(-23.525 -27.993)" fill="#93b7fa"/>
    <path id="Path_111" data-name="Path 111" d="M262.468,256.872s-4.078-3.853.731-7.248C263.2,249.624,267.065,254.1,262.468,256.872Z" transform="translate(-25.137 -26.891)" fill="#82a7e7"/>
    <path id="Path_112" data-name="Path 112" d="M265.52,260.481h-8.949L258,266.306h5.985Z" transform="translate(-23.713 -30.951)" fill="#314f99"/>
    <line id="Line_3" data-name="Line 3" y2="41.084" transform="translate(259.59 236.418)" fill="none" stroke="#3d415b" stroke-miterlimit="10" stroke-width="2"/>
  </g>
</svg>
